# xmcd
#
# Track frame offsets:
#	150
#	20659
#	39401
#	51332
#	80749
#	103519
#	122566
#	145495
#	163489
#	193495
#
# Disc length: 2871 seconds
#
# Revision: 0
# Processed by: cddbd v1.5PL3 Copyright (c) Steve Scherf et al.
# Submitted via: audiograbber 1.83.01
#
DISCID=960b350a
DTITLE=Bill Rhoades and The Party Kings - Don't Lose Your Kool
DYEAR=1900
DGENRE=Blues
TTITLE0=Look On Yonder's Wall
TTITLE1=High Cost Of Living
TTITLE2=So Mean To Me
TTITLE3=You Can't Live Long
TTITLE4=I Wish You Would
TTITLE5=Gonna Tell Your Mother
TTITLE6=Top Of The Heap
TTITLE7=Boogie Woogie Blues
TTITLE8=Howln' Wolf
TTITLE9=Don't Lose Your Cool
EXTD=
EXTT0=
EXTT1=
EXTT2=
EXTT3=
EXTT4=
EXTT5=
EXTT6=
EXTT7=
EXTT8=
EXTT9=
PLAYORDER=
